<?xml version="1.0" encoding="UTF-8"?>
<svg xmlns="http://www.w3.org/2000/svg" viewBox="0 0 1095 1095" width="1095" height="1095">
  <path d="M0.25 0.25C365.08 0.25 729.92 0.25 1094.75 0.25C1094.75 365.08 1094.75 729.92 1094.75 1094.75C729.92 1094.75 365.08 1094.75 0.25 1094.75C0.25 729.92 0.25 365.08 0.25 0.25ZM434.5 74.5C433.29 79.42 433.25 84.45 432.74 89.5C431.52 101.48 430.93 113.52 429.76 125.5C426.11 162.77 423.87 200.25 419.69 237.46C417.94 253.07 416.92 268.82 415.9 284.5C415.66 288.13 413.55 300.39 414.62 302.91C415.95 306.07 426.97 315.48 430.02 318.47C441.45 329.71 452.81 341.03 464.13 352.37C492.75 381.05 521.5 409.69 550.72 437.77C558.7 445.44 566.47 453.37 574.34 461.15C578.73 465.49 583.24 470.98 588.5 474.13C587.29 468.35 584.28 462.83 582.43 457.17C578.22 444.33 572.82 431.9 568.45 419.12C553.78 376.24 536.29 334.31 520.69 291.77C503.23 244.14 483.89 197.25 465.53 149.96C458.95 133.03 451.99 116.24 445.1 99.42C441.74 91.24 438.96 82.12 434.5 74.5ZM337.5 247.22C339.7 257.99 344.22 268.38 347.58 278.84C356.28 305.89 366.47 332.52 374.7 359.71C381.11 380.9 389.13 401.59 395.66 422.74C410.06 469.34 426.31 515.4 441.8 561.66C450.98 589.03 458.26 617.15 466.64 644.77C469.36 653.75 471.87 662.79 474.67 671.74C475.78 675.29 476.35 679.37 478.5 682.22C517.6 621.31 556.7 560.41 595.8 499.5C590.92 491.8 582 485.45 575.53 478.98C561.05 464.48 546.53 449.91 531.64 435.86C500.95 406.9 471.7 376.44 441.38 347.12C431.73 337.78 422.53 327.96 412.64 318.86C395.7 303.28 379.24 286.82 362.94 270.57C357.28 264.93 343.82 250.23 337.5 247.22ZM748.22 554.5C736.75 539.95 724.81 525.75 713.03 511.44C709.57 507.24 706.1 503.06 702.62 498.87C701.47 497.48 700.13 494.79 698.33 494.19C694.71 493 680.97 495.31 676.5 495.7C665.11 496.68 653.72 497.63 642.33 498.56C635.6 499.11 628.67 498.69 622.13 500.5C627.73 505.72 645.6 513.23 653.29 517.22C664.73 523.15 676.23 529.11 687.88 534.62C693.22 537.14 698.11 540.7 703.63 542.86C709.83 545.27 716.7 546.8 723.13 548.46C731.01 550.48 740.14 554.91 748.22 554.5ZM610.5 510.21C622.17 546.87 633.83 583.52 645.5 620.17C654.69 618.95 663.95 615.1 672.86 612.45C691.67 606.85 710.41 600.76 729.37 595.74C735.34 594.15 751.46 587.67 756.48 587.96C759.45 588.14 762.8 590.78 765.38 592.13C771.95 595.56 778.5 599.07 785.14 602.37C808.38 613.92 831.03 626.62 854.21 638.3C860.61 641.53 878.01 652.03 883.95 652.5C877.58 646.19 868.66 641.3 861.15 636.37C843.91 625.06 826.65 613.55 809.73 601.76C800.1 595.06 790.42 588.37 780.65 581.87C776.99 579.43 773.37 575.89 769.27 574.26C761.52 571.19 752.85 569.67 744.8 567.58C729.61 563.65 713.57 560.07 698.86 554.6C690.21 551.39 682.23 545.64 673.95 541.56C659.26 534.31 644.86 526.47 630.07 519.42C623.59 516.34 617.37 512.31 610.5 510.21ZM600.5 515.03C595.54 519.45 591.89 527.13 588.39 532.87C582.76 542.11 576.84 551.32 570.87 560.34C550.78 590.68 531.12 621.47 511.87 652.35C505.24 663 497.89 673.23 491.48 684C488.75 688.6 484.06 693.07 484.23 698.5C493 701.93 508.57 701.35 518.37 702.39C522.44 702.83 529 704.72 532.93 703.41C536.11 702.34 539.46 698.61 542.12 696.59C549.87 690.69 557.65 684.79 565.47 678.98C580.55 667.77 595.14 655.92 610.14 644.62C618.4 638.41 627.49 632.57 635.04 625.5C623.53 588.68 612.01 551.85 600.5 515.03ZM432.5 572.05C427.78 576.21 427.17 590.99 426.07 597.5C422.32 619.79 418.79 642.15 414.7 664.38C407.98 700.97 401.52 737.7 395.75 774.46C394.02 785.5 391.69 796.46 389.85 807.49C389.15 811.69 387.33 817.25 387.97 821.46C388.7 826.29 395.5 838.47 397.77 843.72C404.99 860.41 412.34 877.08 419.85 893.63C424.87 904.7 429.46 915.96 434.47 927.04C436.6 931.75 438.04 938.01 441.5 941.78C459.31 922.63 476.18 901.54 492.73 881.24C497.21 875.75 501.93 870.42 506.51 865.02C508.28 862.94 512.12 860.01 512.82 857.32C514.02 852.69 508.87 840 507.52 834.97C503.07 818.46 498.82 801.9 494.15 785.45C479.96 735.52 467.54 685.03 451.97 635.5C447.15 620.19 443.18 604.61 438.24 589.33C436.46 583.82 435.8 576.8 432.5 572.05ZM415.5 591.12C412.91 592.73 409.52 594.69 407.52 597.02C403.96 601.17 401.07 610.01 398.61 615.14C392.87 627.11 387.14 639.12 381.72 651.24C373.76 669.05 365.3 686.74 356.79 704.3C353.46 711.15 347 721.65 345.3 728.72C343.67 735.53 344.65 747.07 344.38 754.5C343.63 775.48 342.99 796.51 342.72 817.5C349.82 819.09 368.9 818.31 376.18 816.5C389.28 741.37 402.39 666.25 415.5 591.12ZM495.5 738.47C495.57 746.16 501.32 763.63 503.65 771.75C508.61 789.01 512.79 806.52 517.56 823.84C519.54 831.02 521.03 838.31 522.99 845.49C523.82 848.51 524.14 853 525.9 855.58C527.95 858.6 535.54 862.57 538.79 864.68C548.45 870.94 558.07 877.42 567.5 884.02C567.77 879.57 564.07 874.56 562.04 870.44C557.54 861.3 552.93 852.17 548.54 842.97C539.57 824.18 529.25 806.02 520.38 787.2C516.02 777.96 511.27 768.92 506.67 759.8C503.08 752.7 499.81 745.15 495.5 738.47Z" fill="none" fill-rule="evenodd" stroke="none" stroke-width="0.25" stroke-linejoin="round"/>
  <path d="M434.5 74.5C438.96 82.12 441.74 91.24 445.1 99.42C451.99 116.24 458.95 133.03 465.53 149.96C483.89 197.25 503.23 244.14 520.69 291.77C536.29 334.31 553.78 376.24 568.45 419.12C572.82 431.9 578.22 444.33 582.43 457.17C584.28 462.83 587.29 468.35 588.5 474.13C583.24 470.98 578.73 465.49 574.34 461.15C566.47 453.37 558.7 445.44 550.72 437.77C521.5 409.69 492.75 381.05 464.13 352.37C452.81 341.03 441.45 329.71 430.02 318.47C426.97 315.48 415.95 306.07 414.62 302.91C413.55 300.39 415.66 288.13 415.9 284.5C416.92 268.82 417.94 253.07 419.69 237.46C423.87 200.25 426.11 162.77 429.76 125.5C430.93 113.52 431.52 101.48 432.74 89.5C433.25 84.45 433.29 79.42 434.5 74.5ZM337.5 247.22C343.82 250.23 357.28 264.93 362.94 270.57C379.24 286.82 395.7 303.28 412.64 318.86C422.53 327.96 431.73 337.78 441.38 347.12C471.7 376.44 500.95 406.9 531.64 435.86C546.53 449.91 561.05 464.48 575.53 478.98C582 485.45 590.92 491.8 595.8 499.5C556.7 560.41 517.6 621.31 478.5 682.22C476.35 679.37 475.78 675.29 474.67 671.74C471.87 662.79 469.36 653.75 466.64 644.77C458.26 617.15 450.98 589.03 441.8 561.66C426.31 515.4 410.06 469.34 395.66 422.74C389.13 401.59 381.11 380.9 374.7 359.71C366.47 332.52 356.28 305.89 347.58 278.84C344.22 268.38 339.7 257.99 337.5 247.22ZM748.22 554.5C740.14 554.91 731.01 550.48 723.13 548.46C716.7 546.8 709.83 545.27 703.63 542.86C698.11 540.7 693.22 537.14 687.88 534.62C676.23 529.11 664.73 523.15 653.29 517.22C645.6 513.23 627.73 505.72 622.13 500.5C628.67 498.69 635.6 499.11 642.33 498.56C653.72 497.63 665.11 496.68 676.5 495.7C680.97 495.31 694.71 493 698.33 494.19C700.13 494.79 701.47 497.48 702.62 498.87C706.1 503.06 709.57 507.24 713.03 511.44C724.81 525.75 736.75 539.95 748.22 554.5ZM610.5 510.21C617.37 512.31 623.59 516.34 630.07 519.42C644.86 526.47 659.26 534.31 673.95 541.56C682.23 545.64 690.21 551.39 698.86 554.6C713.57 560.07 729.61 563.65 744.8 567.58C752.85 569.67 761.52 571.19 769.27 574.26C773.37 575.89 776.99 579.43 780.65 581.87C790.42 588.37 800.1 595.06 809.73 601.76C826.65 613.55 843.91 625.06 861.15 636.37C868.66 641.3 877.58 646.19 883.95 652.5C878.01 652.03 860.61 641.53 854.21 638.3C831.03 626.62 808.38 613.92 785.14 602.37C778.5 599.07 771.95 595.56 765.38 592.13C762.8 590.78 759.45 588.14 756.48 587.96C751.46 587.67 735.34 594.15 729.37 595.74C710.41 600.76 691.67 606.85 672.86 612.45C663.95 615.1 654.69 618.95 645.5 620.17C633.83 583.52 622.17 546.87 610.5 510.21ZM600.5 515.03C612.01 551.85 623.53 588.68 635.04 625.5C627.49 632.57 618.4 638.41 610.14 644.62C595.14 655.92 580.55 667.77 565.47 678.98C557.65 684.79 549.87 690.69 542.12 696.59C539.46 698.61 536.11 702.34 532.93 703.41C529 704.72 522.44 702.83 518.37 702.39C508.57 701.35 493 701.93 484.23 698.5C484.06 693.07 488.75 688.6 491.48 684C497.89 673.23 505.24 663 511.87 652.35C531.12 621.47 550.78 590.68 570.87 560.34C576.84 551.32 582.76 542.11 588.39 532.87C591.89 527.13 595.54 519.45 600.5 515.03ZM432.5 572.05C435.8 576.8 436.46 583.82 438.24 589.33C443.18 604.61 447.15 620.19 451.97 635.5C467.54 685.03 479.96 735.52 494.15 785.45C498.82 801.9 503.07 818.46 507.52 834.97C508.87 840 514.02 852.69 512.82 857.32C512.12 860.01 508.28 862.94 506.51 865.02C501.93 870.42 497.21 875.75 492.73 881.24C476.18 901.54 459.31 922.63 441.5 941.78C438.04 938.01 436.6 931.75 434.47 927.04C429.46 915.96 424.87 904.7 419.85 893.63C412.34 877.08 404.99 860.41 397.77 843.72C395.5 838.47 388.7 826.29 387.97 821.46C387.33 817.25 389.15 811.69 389.85 807.49C391.69 796.46 394.02 785.5 395.75 774.46C401.52 737.7 407.98 700.97 414.7 664.38C418.79 642.15 422.32 619.79 426.07 597.5C427.17 590.99 427.78 576.21 432.5 572.05ZM415.5 591.12C402.39 666.25 389.28 741.37 376.18 816.5C368.9 818.31 349.82 819.09 342.72 817.5C342.99 796.51 343.63 775.48 344.38 754.5C344.65 747.07 343.67 735.53 345.3 728.72C347 721.65 353.46 711.15 356.79 704.3C365.3 686.74 373.76 669.05 381.72 651.24C387.14 639.12 392.87 627.11 398.61 615.14C401.07 610.01 403.96 601.17 407.52 597.02C409.52 594.69 412.91 592.73 415.5 591.12ZM495.5 738.47C499.81 745.15 503.08 752.7 506.67 759.8C511.27 768.92 516.02 777.96 520.38 787.2C529.25 806.02 539.57 824.18 548.54 842.97C552.93 852.17 557.54 861.3 562.04 870.44C564.07 874.56 567.77 879.57 567.5 884.02C558.07 877.42 548.45 870.94 538.79 864.68C535.54 862.57 527.95 858.6 525.9 855.58C524.14 853 523.82 848.51 522.99 845.49C521.03 838.31 519.54 831.02 517.56 823.84C512.79 806.52 508.61 789.01 503.65 771.75C501.32 763.63 495.57 746.16 495.5 738.47Z" fill="#020202" fill-rule="evenodd" stroke="#020202" stroke-width="0.25" stroke-linejoin="round"/>
</svg>